# Blender 3.5.1
# www.blender.org
mtllib FergusHead.mtl
o Character
v 0.037186 -0.149358 -0.015054
v 0.060357 -0.128834 0.037075
v 0.038179 -0.126703 0.083765
v 0.037094 -0.077869 -0.009997
v 0.051990 -0.061483 0.026960
v 0.037106 -0.051076 0.059706
v 0.070809 -0.002634 0.037535
v 0.069723 0.008142 -0.014195
v 0.050151 0.126100 0.045351
v 0.036803 0.111322 0.077185
v 0.049979 0.073520 0.085452
v 0.053680 0.029782 0.085912
v 0.048600 -0.007225 0.079016
v 0.078870 0.043650 0.044431
v 0.073295 0.041585 -0.014854
v 0.071760 0.091617 0.043052
v 0.075324 0.088197 -0.019112
v 0.049507 0.129024 -0.025574
v 0.037094 -0.069262 -0.066810
v 0.065708 0.008834 -0.068469
v 0.066354 0.044638 -0.062413
v 0.070030 0.075766 -0.067085
v 0.052555 0.115160 -0.059270
v -0.037186 -0.149358 -0.015054
v -0.060357 -0.128834 0.037075
v 0.000000 -0.151241 -0.031710
v -0.038179 -0.126703 0.083765
v 0.000000 -0.130441 0.088957
v -0.037094 -0.077869 -0.009997
v -0.051990 -0.061483 0.026960
v 0.000000 -0.092607 -0.036602
v -0.037106 -0.051076 0.059706
v 0.000000 -0.050677 0.065509
v -0.070809 -0.002634 0.037535
v -0.069723 0.008142 -0.014195
v 0.000000 0.135755 0.044891
v -0.050151 0.126100 0.045351
v -0.036803 0.111322 0.077185
v 0.000000 0.123113 0.076084
v 0.000000 0.077137 0.097692
v -0.049979 0.073520 0.085452
v -0.053680 0.029782 0.085912
v 0.000000 0.026104 0.097692
v 0.000000 -0.009391 0.087524
v -0.048600 -0.007225 0.079016
v -0.078870 0.043650 0.044431
v -0.073295 0.041585 -0.014854
v -0.071760 0.091617 0.043052
v -0.075324 0.088197 -0.019112
v -0.049507 0.129024 -0.025574
v 0.000000 0.136380 -0.026953
v -0.037094 -0.069262 -0.066810
v 0.000000 -0.084000 -0.088780
v -0.065708 0.008834 -0.068469
v -0.066354 0.044638 -0.062413
v -0.070030 0.075766 -0.067085
v -0.052555 0.115160 -0.059270
v 0.000000 0.118236 -0.074414
v 0.000000 0.001430 -0.107937
v 0.000000 0.043934 -0.094165
v 0.000000 0.073577 -0.097705
vn 0.5030 0.0015 -0.8643
vn 0.9126 0.0408 -0.4069
vn 0.1256 0.2908 0.9485
vn 0.9044 0.1547 0.3976
vn 0.9340 -0.3252 -0.1478
vn 0.1808 0.3555 0.9170
vn 0.2093 0.8797 0.4270
vn 0.2257 0.0135 0.9741
vn 0.1562 -0.4483 0.8801
vn 0.2020 -0.2378 0.9501
vn 0.9879 -0.1386 -0.0702
vn 0.9984 0.0525 -0.0189
vn 0.8457 0.5335 0.0166
vn 0.1678 0.9855 0.0237
vn 0.7455 0.4026 0.5311
vn 0.8487 0.1104 0.5173
vn 0.8682 -0.2113 0.4490
vn 0.8194 -0.3694 0.4384
vn 0.4433 -0.8854 -0.1398
vn 0.9927 -0.0520 -0.1087
vn 0.9343 -0.3509 -0.0631
vn 0.8652 0.4699 -0.1751
vn 0.9892 -0.0862 -0.1182
vn 0.1521 0.9214 -0.3577
vn 0.5339 -0.1981 -0.8220
vn 0.4533 0.2153 -0.8650
vn 0.3250 0.3869 -0.8630
vn 0.4140 -0.1464 -0.8984
vn -0.5030 0.0015 -0.8643
vn -0.9126 0.0408 -0.4069
vn -0.1256 0.2908 0.9485
vn -0.9044 0.1547 0.3976
vn -0.9340 -0.3252 -0.1478
vn -0.1808 0.3555 0.9170
vn -0.2093 0.8797 0.4270
vn -0.2257 0.0135 0.9741
vn -0.1562 -0.4483 0.8801
vn -0.2020 -0.2378 0.9501
vn -0.9879 -0.1386 -0.0702
vn -0.9984 0.0525 -0.0189
vn -0.8457 0.5335 0.0166
vn -0.1678 0.9855 0.0237
vn -0.7455 0.4026 0.5311
vn -0.8487 0.1104 0.5173
vn -0.8682 -0.2113 0.4490
vn -0.8194 -0.3694 0.4384
vn -0.4433 -0.8854 -0.1398
vn -0.9927 -0.0520 -0.1087
vn -0.9343 -0.3509 -0.0631
vn -0.8652 0.4699 -0.1751
vn -0.9892 -0.0862 -0.1182
vn -0.1521 0.9214 -0.3577
vn -0.5339 -0.1981 -0.8220
vn -0.4533 0.2153 -0.8650
vn -0.3250 0.3869 -0.8630
vn -0.4140 -0.1464 -0.8984
vt 0.397914 0.757555
vt 0.350591 0.773937
vt 0.350591 0.301492
vt 0.395886 0.303194
vt 0.398102 0.814619
vt 0.367680 0.827698
vt 0.367680 0.355253
vt 0.398076 0.363561
vt 0.329246 0.874673
vt 0.329246 0.402228
vt 0.331464 0.883274
vt 0.371436 0.504985
vt 0.398695 0.493188
vt 0.371786 0.463014
vt 0.364228 0.428102
vt 0.374602 0.398562
vt 0.312783 0.911617
vt 0.312783 0.439172
vt 0.324169 0.909969
vt 0.327305 0.949905
vt 0.327305 0.477460
vt 0.320026 0.474730
vt 0.320026 0.947175
vt 0.372750 0.507319
vt 0.372750 0.979764
vt 0.398102 0.821489
vt 0.339664 0.883826
vt 0.338344 0.912406
vt 0.330837 0.937252
vt 0.366526 0.968698
vt 0.549798 0.757555
vt 0.597121 0.773937
vt 0.597121 0.301492
vt 0.473856 0.756052
vt 0.551826 0.303194
vt 0.473856 0.300210
vt 0.549610 0.814619
vt 0.580032 0.827698
vt 0.580032 0.355253
vt 0.473856 0.802855
vt 0.549636 0.363561
vt 0.473856 0.363879
vt 0.618466 0.874673
vt 0.618466 0.402228
vt 0.616247 0.883274
vt 0.473856 0.512691
vt 0.576276 0.504985
vt 0.549017 0.493188
vt 0.473856 0.502601
vt 0.473856 0.465902
vt 0.575926 0.463014
vt 0.583483 0.428102
vt 0.473856 0.425166
vt 0.473856 0.396834
vt 0.573109 0.398562
vt 0.634929 0.911617
vt 0.634929 0.439172
vt 0.623542 0.909969
vt 0.620407 0.949905
vt 0.620407 0.477460
vt 0.627686 0.474730
vt 0.627686 0.947175
vt 0.574962 0.507319
vt 0.574962 0.979764
vt 0.473856 0.513190
vt 0.473856 0.985635
vt 0.549610 0.821489
vt 0.473856 0.809725
vt 0.608048 0.883826
vt 0.609368 0.912406
vt 0.616875 0.937252
vt 0.581186 0.968698
vt 0.473856 0.971153
vt 0.473856 0.877916
vt 0.473856 0.911844
vt 0.473856 0.935505
s 0
usemtl Material
f 1/1/1 26/34/1 31/40/1 4/5/1
f 2/2/2 1/1/2 4/5/2 5/6/2
f 28/36/3 3/4/3 6/8/3 33/42/3
f 3/4/4 2/3/4 5/7/4 6/8/4
f 5/6/5 4/5/5 8/11/5 7/9/5
f 40/50/6 11/14/6 10/13/6 39/49/6
f 39/49/7 10/13/7 9/12/7 36/46/7
f 43/53/8 12/15/8 11/14/8 40/50/8
f 33/42/9 6/8/9 13/16/9 44/54/9
f 44/54/10 13/16/10 12/15/10 43/53/10
f 7/9/11 8/11/11 15/19/11 14/17/11
f 14/17/12 15/19/12 17/23/12 16/20/12
f 16/21/13 17/22/13 18/24/13 9/12/13
f 9/12/14 18/24/14 51/65/14 36/46/14
f 9/12/15 10/13/15 11/14/15 16/21/15
f 12/15/16 14/18/16 16/21/16 11/14/16
f 13/16/17 7/10/17 14/18/17 12/15/17
f 5/7/18 7/10/18 13/16/18 6/8/18
f 4/5/19 31/40/19 53/68/19 19/26/19
f 15/19/20 8/11/20 20/27/20 21/28/20
f 8/11/21 4/5/21 19/26/21 20/27/21
f 18/25/22 17/23/22 22/29/22 23/30/22
f 17/23/23 15/19/23 21/28/23 22/29/23
f 51/66/24 18/25/24 23/30/24 58/73/24
f 53/68/25 59/74/25 20/27/25 19/26/25
f 21/28/26 20/27/26 59/74/26 60/75/26
f 61/76/27 58/73/27 23/30/27 22/29/27
f 22/29/28 21/28/28 60/75/28 61/76/28
f 24/31/29 29/37/29 31/40/29 26/34/29
f 25/32/30 30/38/30 29/37/30 24/31/30
f 28/36/31 33/42/31 32/41/31 27/35/31
f 27/35/32 32/41/32 30/39/32 25/33/32
f 30/38/33 34/43/33 35/45/33 29/37/33
f 40/50/34 39/49/34 38/48/34 41/51/34
f 39/49/35 36/46/35 37/47/35 38/48/35
f 43/53/36 40/50/36 41/51/36 42/52/36
f 33/42/37 44/54/37 45/55/37 32/41/37
f 44/54/38 43/53/38 42/52/38 45/55/38
f 34/43/39 46/56/39 47/58/39 35/45/39
f 46/56/40 48/59/40 49/62/40 47/58/40
f 48/60/41 37/47/41 50/63/41 49/61/41
f 37/47/42 36/46/42 51/65/42 50/63/42
f 37/47/43 48/60/43 41/51/43 38/48/43
f 42/52/44 41/51/44 48/60/44 46/57/44
f 45/55/45 42/52/45 46/57/45 34/44/45
f 30/39/46 32/41/46 45/55/46 34/44/46
f 29/37/47 52/67/47 53/68/47 31/40/47
f 47/58/48 55/70/48 54/69/48 35/45/48
f 35/45/49 54/69/49 52/67/49 29/37/49
f 50/64/50 57/72/50 56/71/50 49/62/50
f 49/62/51 56/71/51 55/70/51 47/58/51
f 51/66/52 58/73/52 57/72/52 50/64/52
f 53/68/53 52/67/53 54/69/53 59/74/53
f 55/70/54 60/75/54 59/74/54 54/69/54
f 61/76/55 56/71/55 57/72/55 58/73/55
f 56/71/56 61/76/56 60/75/56 55/70/56
